<svg xmlns="http://www.w3.org/2000/svg" width="45.186" height="44.067" viewBox="0 0 45.186 44.067">
  <path id="Icon_simple-github" data-name="Icon simple-github" d="M22.593.446a22.594,22.594,0,0,0-7.145,44.028c1.13.213,1.544-.486,1.544-1.086,0-.537-.019-1.958-.028-3.841-6.285,1.363-7.61-3.031-7.61-3.031a5.988,5.988,0,0,0-2.513-3.3C4.793,31.81,7,31.838,7,31.838a4.737,4.737,0,0,1,3.46,2.327c2.015,3.455,5.289,2.457,6.58,1.879a4.817,4.817,0,0,1,1.431-3.022c-5.017-.565-10.291-2.508-10.291-11.165A8.716,8.716,0,0,1,10.5,15.8a8.033,8.033,0,0,1,.2-5.98s1.892-.606,6.213,2.316a21.3,21.3,0,0,1,11.3,0C32.5,9.21,34.4,9.816,34.4,9.816a8.255,8.255,0,0,1,.226,5.98,8.752,8.752,0,0,1,2.316,6.062c0,8.679-5.281,10.59-10.308,11.146a5.409,5.409,0,0,1,1.525,4.18c0,3.024-.028,5.452-.028,6.187,0,.593.4,1.3,1.553,1.073a22.565,22.565,0,0,0-7.087-44" transform="translate(0 -0.445)" fill="#fff"/>
</svg>
