<svg xmlns="http://www.w3.org/2000/svg" width="113.964" height="113.982" viewBox="0 0 113.964 113.982">
  <g id="Group_1" data-name="Group 1" transform="translate(-64.951 -722.018)">
    <g id="moon" transform="translate(64.909 722.018)">
      <path id="Path_6" data-name="Path 6" d="M65.129,125.286a56.6,56.6,0,0,0,51.645-33.36,56.158,56.158,0,0,1-23.31,5.025A56.654,56.654,0,0,1,41.819,16.97a56.67,56.67,0,0,0,23.31,108.316Z" transform="translate(-6.547 -13.192)" fill="#ffda44"/>
      <path id="Path_7" data-name="Path 7" d="M58.582,113.982A58.559,58.559,0,0,1,34.5,2.055L39.065,0,36.987,4.56a54.072,54.072,0,0,0-4.851,22.528A54.842,54.842,0,0,0,86.917,81.869a54.066,54.066,0,0,0,22.528-4.855l4.56-2.078-2.055,4.571A58.605,58.605,0,0,1,58.582,113.982ZM31.645,7.726A54.781,54.781,0,1,0,106.28,82.361a57.921,57.921,0,0,1-19.362,3.287A58.627,58.627,0,0,1,28.358,27.088,57.914,57.914,0,0,1,31.645,7.726Z" transform="translate(0)" fill="none"/>
    </g>
    <circle id="Ellipse_1" data-name="Ellipse 1" cx="6" cy="6" r="6" transform="translate(78 758)" fill="#ffeb9a"/>
    <circle id="Ellipse_2" data-name="Ellipse 2" cx="9" cy="9" r="9" transform="translate(78 788)" fill="#ffeb9a"/>
    <circle id="Ellipse_3" data-name="Ellipse 3" cx="4.5" cy="4.5" r="4.5" transform="translate(133 810)" fill="#ffeb9a"/>
  </g>
</svg>
