<svg xmlns="http://www.w3.org/2000/svg" width="43.853" height="43.853" viewBox="0 0 43.853 43.853">
  <path id="Icon_awesome-linkedin" data-name="Icon awesome-linkedin" d="M40.72,2.25H3.123A3.146,3.146,0,0,0,0,5.412V42.941A3.146,3.146,0,0,0,3.123,46.1h37.6a3.154,3.154,0,0,0,3.132-3.162V5.412A3.154,3.154,0,0,0,40.72,2.25ZM13.254,39.838h-6.5V18.91h6.509V39.838ZM10,16.052a3.769,3.769,0,1,1,3.769-3.769A3.77,3.77,0,0,1,10,16.052ZM37.617,39.838h-6.5V29.658c0-2.428-.049-5.55-3.377-5.55-3.387,0-3.906,2.643-3.906,5.374V39.838h-6.5V18.91h6.235v2.858h.088a6.846,6.846,0,0,1,6.157-3.377c6.578,0,7.8,4.336,7.8,9.975Z" transform="translate(0 -2.25)" fill="#fff"/>
</svg>
