<svg xmlns="http://www.w3.org/2000/svg" width="53.993" height="43.853" viewBox="0 0 53.993 43.853">
  <path id="Icon_awesome-twitter" data-name="Icon awesome-twitter" d="M48.443,14.31c.034.48.034.959.034,1.439,0,14.629-11.134,31.485-31.485,31.485A31.271,31.271,0,0,1,0,42.266a22.892,22.892,0,0,0,2.672.137A22.162,22.162,0,0,0,16.41,37.675,11.085,11.085,0,0,1,6.064,30a13.955,13.955,0,0,0,2.09.171,11.7,11.7,0,0,0,2.912-.377,11.067,11.067,0,0,1-8.873-10.86V18.8a11.145,11.145,0,0,0,5,1.4A11.082,11.082,0,0,1,3.768,5.4a31.454,31.454,0,0,0,22.817,11.58,12.492,12.492,0,0,1-.274-2.535A11.076,11.076,0,0,1,45.463,6.875,21.787,21.787,0,0,0,52.486,4.2a11.036,11.036,0,0,1-4.865,6.1,22.184,22.184,0,0,0,6.372-1.713,23.788,23.788,0,0,1-5.55,5.721Z" transform="translate(0 -3.381)" fill="#fff"/>
</svg>
